<?xml version='1.0' encoding='utf-8'?>
<svg xmlns:xlink="http://www.w3.org/1999/xlink" xmlns="http://www.w3.org/2000/svg" x="53550pt" y="-460pt" width="1600pt" height="1000pt" viewBox="53550 -460 1600 1000"> <g id="1"> <title>Layer 1</title> <defs> <title>Shape 47</title> <g id="2"> <defs> <path id="3" d="M54730,40.0046 C54730,102.561,54679.2,153.361,54616.7,153.333 C54438.9,153.333,54261.1,153.333,54083.3,153.333 C54020.8,153.361,53970,102.561,53970,40.0041 C53970,-22.5607,54020.8,-73.3606,54083.3,-73.3333 C54261.1,-73.3334,54438.9,-73.3334,54616.7,-73.3333 C54679.2,-73.3606,54730,-22.561,54730,39.9954 z M54750,40.0046 C54750,-33.6046,54690.3,-93.3654,54616.7,-93.3334 C54438.9,-93.3334,54261.1,-93.3334,54083.3,-93.3334 C54009.7,-93.3654,53950,-33.6048,53950,40.0041 C53950,113.605,54009.7,173.365,54083.3,173.333 C54261.1,173.333,54438.9,173.333,54616.7,173.333 C54690.3,173.365,54750,113.605,54750,39.9954 z"/> </defs> <use xlink:href="#3" style="fill:#3c3d48;fill-opacity:1;fill-rule:evenodd;opacity:1;stroke:none;"/> </g> </defs> <use xlink:href="#2"/> <defs> <title>Calendar 2</title> <g id="4"> <defs> <path id="5" d="M54133.9,58.46 C54133.9,58.46,54109.2,58.46,54109.2,58.46 C54109.2,58.46,54109.2,83.0754,54109.2,83.0754 C54109.2,83.0754,54066.2,83.0754,54066.2,83.0754 C54066.2,83.0754,54066.2,27.6908,54066.2,27.6908 C54066.2,27.6908,54133.9,27.6908,54133.9,27.6908 z M54115.4,83.0754 C54115.4,83.0754,54115.4,64.6139,54115.4,64.6139 C54115.4,64.6139,54133.9,64.6139,54133.9,64.6139 z M54127.7,3.07542 C54127.7,3.07542,54127.7,6.92157,54127.7,6.92157 C54127.7,8.19561,54126.3,9.22926,54124.6,9.22926 C54122.9,9.22926,54121.5,8.19561,54121.5,6.92157 C54121.5,6.92157,54121.5,3.07542,54121.5,3.07542 C54121.5,3.07542,54115.4,3.07542,54115.4,3.07542 C54115.4,3.07542,54115.4,6.92157,54115.4,6.92157 C54115.4,8.19561,54114,9.22926,54112.3,9.22926 C54110.6,9.22926,54109.2,8.19561,54109.2,6.92157 C54109.2,6.92157,54109.2,3.07542,54109.2,3.07542 C54109.2,3.07542,54103.1,3.07542,54103.1,3.07542 C54103.1,3.07542,54103.1,6.92157,54103.1,6.92157 C54103.1,8.19561,54101.7,9.22926,54100,9.22926 C54098.3,9.22926,54096.9,8.19561,54096.9,6.92157 C54096.9,6.92157,54096.9,3.07542,54096.9,3.07542 C54096.9,3.07542,54090.8,3.07542,54090.8,3.07542 C54090.8,3.07542,54090.8,6.92157,54090.8,6.92157 C54090.8,8.19561,54089.4,9.22926,54087.7,9.22926 C54086,9.22926,54084.6,8.19561,54084.6,6.92157 C54084.6,6.92157,54084.6,3.07542,54084.6,3.07542 C54084.6,3.07542,54078.5,3.07542,54078.5,3.07542 C54078.5,3.07542,54078.5,6.92157,54078.5,6.92157 C54078.5,8.19561,54077.1,9.22926,54075.4,9.22926 C54073.7,9.22926,54072.3,8.19561,54072.3,6.92157 C54072.3,6.92157,54072.3,3.07542,54072.3,3.07542 C54072.3,3.07542,54060,3.07542,54060,3.07542 C54060,3.07542,54060,89.2293,54060,89.2293 C54060,89.2293,54140,89.2293,54140,89.2293 C54140,89.2293,54140,3.07542,54140,3.07542 z M54072.3,39.9985 C54072.3,39.9985,54078.5,39.9985,54078.5,39.9985 C54078.5,39.9985,54078.5,33.8446,54078.5,33.8446 C54078.5,33.8446,54072.3,33.8446,54072.3,33.8446 z M54084.6,39.9985 C54084.6,39.9985,54090.8,39.9985,54090.8,39.9985 C54090.8,39.9985,54090.8,33.8446,54090.8,33.8446 C54090.8,33.8446,54084.6,33.8446,54084.6,33.8446 z M54096.9,39.9985 C54096.9,39.9985,54103.1,39.9985,54103.1,39.9985 C54103.1,39.9985,54103.1,33.8446,54103.1,33.8446 C54103.1,33.8446,54096.9,33.8446,54096.9,33.8446 z M54072.3,52.3062 C54072.3,52.3062,54078.5,52.3062,54078.5,52.3062 C54078.5,52.3062,54078.5,46.1523,54078.5,46.1523 C54078.5,46.1523,54072.3,46.1523,54072.3,46.1523 z M54084.6,52.3062 C54084.6,52.3062,54090.8,52.3062,54090.8,52.3062 C54090.8,52.3062,54090.8,46.1523,54090.8,46.1523 C54090.8,46.1523,54084.6,46.1523,54084.6,46.1523 z M54096.9,52.3062 C54096.9,52.3062,54103.1,52.3062,54103.1,52.3062 C54103.1,52.3062,54103.1,46.1523,54103.1,46.1523 C54103.1,46.1523,54096.9,46.1523,54096.9,46.1523 z M54109.2,39.9985 C54109.2,39.9985,54115.4,39.9985,54115.4,39.9985 C54115.4,39.9985,54115.4,33.8446,54115.4,33.8446 C54115.4,33.8446,54109.2,33.8446,54109.2,33.8446 z M54109.2,52.3062 C54109.2,52.3062,54115.4,52.3062,54115.4,52.3062 C54115.4,52.3062,54115.4,46.1523,54115.4,46.1523 C54115.4,46.1523,54109.2,46.1523,54109.2,46.1523 z M54121.5,39.9985 C54121.5,39.9985,54127.7,39.9985,54127.7,39.9985 C54127.7,39.9985,54127.7,33.8446,54127.7,33.8446 C54127.7,33.8446,54121.5,33.8446,54121.5,33.8446 z M54121.5,52.3062 C54121.5,52.3062,54127.7,52.3062,54127.7,52.3062 C54127.7,52.3062,54127.7,46.1523,54127.7,46.1523 C54127.7,46.1523,54121.5,46.1523,54121.5,46.1523 z M54072.3,64.6139 C54072.3,64.6139,54078.5,64.6139,54078.5,64.6139 C54078.5,64.6139,54078.5,58.46,54078.5,58.46 C54078.5,58.46,54072.3,58.46,54072.3,58.46 z M54084.6,64.6139 C54084.6,64.6139,54090.8,64.6139,54090.8,64.6139 C54090.8,64.6139,54090.8,58.46,54090.8,58.46 C54090.8,58.46,54084.6,58.46,54084.6,58.46 z M54096.9,64.6139 C54096.9,64.6139,54103.1,64.6139,54103.1,64.6139 C54103.1,64.6139,54103.1,58.46,54103.1,58.46 C54103.1,58.46,54096.9,58.46,54096.9,58.46 z M54072.3,76.9216 C54072.3,76.9216,54078.5,76.9216,54078.5,76.9216 C54078.5,76.9216,54078.5,70.7677,54078.5,70.7677 C54078.5,70.7677,54072.3,70.7677,54072.3,70.7677 z M54084.6,76.9216 C54084.6,76.9216,54090.8,76.9216,54090.8,76.9216 C54090.8,76.9216,54090.8,70.7677,54090.8,70.7677 C54090.8,70.7677,54084.6,70.7677,54084.6,70.7677 z M54078.5,-6.92158 C54078.5,-8.19562,54077.1,-9.22927,54075.4,-9.22927 C54073.7,-9.22927,54072.3,-8.19562,54072.3,-6.92158 C54072.3,-6.92158,54072.3,3.07842,54072.3,3.07842 C54072.3,3.07842,54078.5,3.07842,54078.5,3.07842 z M54090.8,-6.92158 C54090.8,-8.19562,54089.4,-9.22927,54087.7,-9.22927 C54086,-9.22927,54084.6,-8.19562,54084.6,-6.92158 C54084.6,-6.92158,54084.6,3.07842,54084.6,3.07842 C54084.6,3.07842,54090.8,3.07842,54090.8,3.07842 z M54103.1,-6.92158 C54103.1,-8.19562,54101.7,-9.22927,54100,-9.22927 C54098.3,-9.22927,54096.9,-8.19562,54096.9,-6.92158 C54096.9,-6.92158,54096.9,3.07842,54096.9,3.07842 C54096.9,3.07842,54103.1,3.07842,54103.1,3.07842 z M54115.4,-6.92158 C54115.4,-8.19562,54114,-9.22927,54112.3,-9.22927 C54110.6,-9.22927,54109.2,-8.19562,54109.2,-6.92158 C54109.2,-6.92158,54109.2,3.07842,54109.2,3.07842 C54109.2,3.07842,54115.4,3.07842,54115.4,3.07842 z M54127.7,-6.92158 C54127.7,-8.19562,54126.3,-9.22927,54124.6,-9.22927 C54122.9,-9.22927,54121.5,-8.19562,54121.5,-6.92158 C54121.5,-6.92158,54121.5,3.07842,54121.5,3.07842 C54121.5,3.07842,54127.7,3.07842,54127.7,3.07842 z"/> </defs> <use xlink:href="#5" style="fill:#3c3d48;fill-opacity:1;fill-rule:evenodd;opacity:1;stroke:none;"/> </g> </defs> <use xlink:href="#4"/> </g> </svg>